<?xml version="1.0" encoding="UTF-8"?>
<!DOCTYPE svg PUBLIC "-//W3C//DTD SVG 1.1//EN" "http://www.w3.org/Graphics/SVG/1.1/DTD/svg11.dtd">
<svg version="1.1" xmlns="http://www.w3.org/2000/svg" xmlns:xlink="http://www.w3.org/1999/xlink" x="0" y="0" width="486" height="591" viewBox="0, 0, 486, 591">
  <defs>
    <clipPath id="Clip_1">
      <path d="M0,591 L485.27,591 L485.27,0.436 L0,0.436 z"/>
    </clipPath>
  </defs>
  <g id="Layer_1">
    <g clip-path="url(#Clip_1)">
      <path d="M229.045,28.932 C235.598,20.81 242.13,13.251 246.683,4.273 C247.919,1.835 249.528,0.35 252.479,0.44 C255.779,0.54 257.106,2.583 257.966,5.297 C260.22,12.412 262.48,19.526 264.756,26.7 C266.422,25.853 266.83,24.232 267.495,22.747 C269.833,17.521 274.089,16.85 277.944,21.231 C287.845,32.482 297.857,43.62 308.531,54.157 C314.829,60.375 321.581,65.979 328.917,70.93 C361.111,92.656 380.709,122.388 386.035,161.139 C386.193,162.292 386.446,163.46 386.396,164.61 C386.051,172.457 386.98,177.809 396.782,180.824 C408.582,184.452 413.26,196.062 414.103,207.856 C415.663,229.66 408.638,247.809 388.935,259.435 C387.014,260.568 386.557,261.627 386.736,263.756 C387.823,276.682 388.811,289.617 389.651,302.561 C389.866,305.883 391.02,307.16 394.483,307.992 C437.585,318.341 467.802,352.244 473.662,396.506 C474.02,399.211 474.92,401.458 476.68,403.657 C488.963,419.006 487.95,440.474 474.435,454.734 C461.284,468.61 439.074,470.426 423.435,458.904 C408.092,447.601 403.303,426.214 412.636,409.325 C414.512,405.93 414.615,402.919 413.786,399.366 C411.188,388.233 405.319,379.432 395.182,372.261 C396.128,384.686 396.995,396.215 397.888,407.743 C398.543,416.192 399.679,424.633 399.807,433.089 C400.014,446.802 394.208,457.896 383.204,466.029 C380.757,467.838 380.263,469.33 380.907,472.168 C382.817,480.588 384.432,489.078 386.048,497.562 C387.028,502.712 384.671,505.45 379.355,505.571 C377.19,505.62 374.969,505.887 372.868,505.518 C367.693,504.61 366.897,507.034 367.193,511.534 C367.73,519.667 368.052,527.844 367.811,535.984 C367.691,540.03 369.359,541.001 372.738,541.522 C384.805,543.384 396.402,546.787 407.092,552.841 C411.9,555.563 416.245,558.884 419.751,563.235 C422.998,567.264 424.838,571.836 424.839,576.983 C424.839,581.13 423.121,584.222 418.367,584.022 C415.777,583.914 414.776,584.749 414.829,587.368 C414.867,589.202 413.791,590.593 411.766,590.633 C407.938,590.707 404.104,590.746 400.279,590.611 C398.373,590.544 397.132,589.349 397.328,587.333 C397.596,584.578 396.283,584.039 393.822,583.999 C391.325,583.958 390.01,584.518 390.401,587.26 C390.467,587.723 390.411,588.397 390.122,588.688 C386.084,592.77 380.998,590.009 376.424,590.65 C374.096,590.976 372.551,589.358 372.684,586.996 C372.86,583.878 370.999,584.006 368.877,584.057 C365.88,584.13 362.877,584.158 359.882,584.052 C357.068,583.951 354.473,583.734 354.678,587.888 C354.759,589.527 353.412,590.597 351.675,590.624 C347.846,590.684 344.015,590.708 340.187,590.636 C338.177,590.598 337.093,589.242 337.086,587.392 C337.075,584.841 336.095,584.078 333.517,583.971 C330.488,583.844 330.287,585.384 330.385,587.586 C330.399,587.903 330.333,588.317 330.137,588.536 C326.202,592.938 321.063,589.954 316.52,590.652 C313.93,591.049 312.465,589.286 312.5,586.715 C312.524,584.863 312.05,584.102 310.04,583.993 C305.267,583.736 304.229,580.565 304.248,576.369 C304.331,557.574 304.287,538.779 304.279,519.983 C304.278,518.486 304.245,516.986 304.156,515.492 C303.968,512.36 304.781,508.472 303.219,506.319 C301.705,504.232 297.607,505.905 294.673,505.55 C291.104,505.118 289.626,502.836 289.327,499.434 C288.702,492.308 287.837,485.2 287.372,478.064 C287.157,474.762 286.105,473.643 282.612,473.664 C255.954,473.822 229.295,473.798 202.638,473.685 C199.584,473.672 198.291,474.285 198.128,477.634 C197.813,484.108 196.94,490.553 196.339,497.014 C195.653,504.396 194.399,505.812 187.114,505.487 C182.856,505.298 181.23,506.108 181.302,510.941 C181.464,521.746 179.993,532.613 180.676,543.361 C181.344,553.852 180.941,564.304 181.296,574.766 C181.463,579.666 180.755,583.973 174.421,584.101 C172.807,584.133 172.546,585.154 172.635,586.456 C172.896,590.263 170.495,590.822 167.486,590.748 C164.988,590.686 162.486,590.674 159.989,590.751 C157.127,590.839 154.911,590.131 155.008,586.737 C155.089,583.921 153.298,584.089 151.374,584.047 C149.483,584.006 148.162,584.197 148.265,586.643 C148.404,589.972 146.275,590.849 143.359,590.751 C141.029,590.673 138.692,590.664 136.363,590.753 C133.03,590.88 130.203,590.471 130.474,586.106 C130.596,584.161 129.384,584.05 127.916,584.064 C123.751,584.103 119.586,584.1 115.42,584.068 C113.722,584.056 112.503,584.339 112.616,586.506 C112.81,590.238 110.373,590.84 107.358,590.751 C104.861,590.677 102.356,590.641 99.862,590.759 C96.938,590.896 94.759,589.942 94.742,586.777 C94.727,583.978 93.17,584.107 91.204,584.029 C89.079,583.944 88.245,584.611 88.241,586.821 C88.237,589.731 86.416,590.833 83.623,590.754 C80.626,590.669 77.626,590.735 74.627,590.729 C72.092,590.724 70.282,589.73 70.532,586.933 C70.77,584.274 69.442,584.135 67.309,584.009 C62.007,583.696 60.275,581.683 60.504,576.317 C60.869,567.779 65.668,561.744 72.115,556.87 C82.279,549.187 94.138,545.433 106.356,542.614 C109.902,541.796 114.803,542.154 116.641,539.943 C118.498,537.709 117.33,532.957 117.479,529.308 C117.748,522.659 117.849,515.998 118.348,509.367 C118.586,506.2 117.595,505.249 114.532,505.525 C111.723,505.779 108.871,505.621 106.04,505.57 C100.603,505.472 98.466,503.134 99.417,497.67 C100.87,489.326 102.668,481.043 104.3,472.73 C105.427,466.988 104.727,466.293 98.982,467.461 C82.116,470.89 65.317,470.912 48.553,466.707 C43.028,465.321 37.363,466.989 31.689,465.876 C4.441,460.535 -8.992,429.401 6.636,406.564 C9.758,402.002 11.46,397.488 12.343,392.169 C19.37,349.836 50.147,317.164 91.729,307.746 C93.887,307.257 95.324,306.939 95.502,304.231 C96.376,290.956 97.449,277.694 98.453,264.427 C98.617,262.247 98.635,260.571 96.074,259.176 C81.324,251.144 74.309,237.816 71.475,221.866 C69.961,213.34 70.672,204.922 73.828,196.854 C77.266,188.064 83.13,181.5 92.467,178.817 C94.7,178.175 95.291,177.271 95.354,175.09 C96.769,126.06 120.548,90.777 161.644,65.484 C179.73,54.353 194.806,39.371 208.2,22.845 C209.527,21.208 210.321,19.111 211.227,17.165 C213.424,12.451 218.471,11.779 221.415,16.104 C224.116,20.072 226.351,24.357 229.045,28.932" fill="#000000"/>
    </g>
    <path d="M248.725,319.852 C198.665,319.807 155.372,313.11 113.528,297.694 C109.443,296.189 108.003,294.411 108.373,289.912 C111.417,252.936 114.213,215.941 117.036,178.947 C117.44,173.656 117.718,168.365 117.769,163.038 C117.849,154.669 120.939,147.087 126.072,140.487 C137.235,126.134 151.207,116.783 169.828,114.641 C188.036,112.546 206.278,111.525 224.561,110.723 C228.435,110.553 231.282,111.646 233.662,114.619 C234.901,116.167 236.459,117.468 237.924,118.825 C240.737,121.429 244.3,121.644 246.278,118.732 C251.986,110.328 259.922,110.48 268.706,111.021 C288.299,112.228 308.068,112.334 327.068,117.75 C347.313,123.522 361.253,136.648 366.738,157.274 C368.497,163.888 367.757,171.152 368.283,178.11 C371.169,216.267 374.053,254.424 377.089,292.57 C377.31,295.336 376.478,296.337 374.083,297.24 C345.933,307.848 316.828,314.337 286.969,317.574 C272.401,319.153 257.79,320.065 248.725,319.852" fill="#F8E4D4"/>
    <path d="M112.622,493.58 C113.759,483.015 117.486,473.223 117.588,462.845 C117.604,461.159 119.129,461.251 120.049,460.863 C135.476,454.347 148.766,444.912 159.536,432.043 C160.938,430.367 162.439,429.71 164.646,429.711 C237.764,429.766 310.882,429.794 384,429.653 C387.978,429.646 387.979,431.793 387.845,434.266 C387.268,444.877 382.427,453.183 373.04,458.087 C367.836,460.805 366.774,463.998 368.153,469.342 C369.894,476.091 370.888,483.03 372.308,489.865 C372.833,492.39 372.745,493.68 369.432,493.658 C347.614,493.509 325.795,493.543 303.976,493.633 C301.459,493.643 300.561,492.998 300.392,490.363 C299.926,483.064 299.064,475.791 298.447,468.5 C298.055,463.869 295.718,461.713 291.003,461.721 C258.858,461.775 226.713,461.793 194.568,461.703 C189.569,461.689 187.266,463.918 186.855,468.741 C186.233,476.032 185.426,483.307 184.761,490.594 C184.6,492.36 184.549,493.649 182.051,493.638 C158.921,493.539 135.79,493.58 112.622,493.58" fill="#FEFEFE"/>
    <path d="M382.127,360.527 C382.849,370.209 383.571,379.89 384.293,389.572 C382.254,391.521 379.657,391.204 377.198,391.205 C303.255,391.242 229.312,391.228 155.37,391.241 C152.327,391.242 149.433,390.554 146.541,389.755 C132.868,384.403 118.913,380.305 104.044,380.451 C101.98,380.471 101.482,379.586 101.687,377.727 C102.32,371.965 102.879,366.193 103.466,360.425 C105.453,358.821 107.84,358.98 110.157,358.979 C198.603,358.953 287.049,358.949 375.495,358.986 C377.796,358.987 380.212,358.752 382.127,360.527" fill="#FEFEFE"/>
    <path d="M146.541,389.755 C148.368,389.702 150.195,389.601 152.022,389.601 C229.446,389.585 306.87,389.579 384.294,389.571 C384.975,397.342 385.539,405.125 386.389,412.876 C386.786,416.5 385.874,417.779 381.93,417.772 C312.872,417.654 243.815,417.672 174.757,417.731 C171.262,417.734 169.421,417.228 171.852,413.486 C174.339,409.66 173.053,406.999 169.721,404.259 C162.601,398.405 154.517,394.188 146.541,389.755" fill="#A81E00"/>
    <path d="M382.127,360.527 C356.159,360.495 330.192,360.442 304.224,360.436 C237.304,360.421 170.385,360.428 103.466,360.426 C103.515,350.752 104.726,341.163 105.585,331.549 C107.341,329.903 109.565,330.027 111.71,330.018 C124.847,329.966 137.984,329.956 151.12,330.026 C153.249,330.037 155.501,329.847 157.19,331.635 C155.288,336.776 153.284,341.883 151.511,347.068 C149.635,352.556 152.155,356.251 157.862,355.603 C167.413,354.519 176.908,352.888 186.397,351.315 C204.887,348.25 223.312,344.745 241.861,342.098 C248.719,341.119 255.612,343.797 262.464,344.889 C283.431,348.231 304.336,351.961 325.288,355.404 C327.995,355.849 331.009,356.6 333.526,354.734 C336.196,352.754 336.234,349.955 335.209,347.079 C333.371,341.918 331.473,336.777 329.6,331.627 C331.281,329.858 333.517,330.032 335.635,330.02 C348.364,329.951 361.094,329.964 373.824,330.007 C375.815,330.014 377.811,330.078 379.5,331.374 C381.151,337.522 380.381,343.911 381.375,350.138 C381.92,353.554 381.895,357.061 382.127,360.527" fill="#A91F00"/>
    <path d="M460.289,388.775 C460.704,391.385 459.597,391.358 457.742,390.809 C447.577,387.802 437.727,388.72 428.359,393.682 C425.71,395.085 425.042,394.052 424.24,391.664 C419.43,377.334 410.52,366.355 396.995,359.388 C394.744,358.228 393.818,356.548 393.648,354.311 C392.869,344.049 392.26,333.773 391.381,323.521 C391.083,320.043 392.252,319.618 395.258,320.545 C429.368,331.056 450.87,353.644 460.117,388.03 C460.203,388.35 460.266,388.677 460.289,388.775" fill="#A81E00"/>
    <path d="M24.476,391.78 C29.442,368.162 40.932,349.713 59.409,335.683 C68.783,328.565 79.254,323.593 90.599,320.374 C93.621,319.517 94.179,319.745 93.838,323.125 C92.79,333.542 92.164,344.003 91.546,354.458 C91.411,356.741 90.647,358.046 88.604,359.102 C77.604,364.786 69.449,373.283 63.974,384.397 C62.375,387.644 54.038,391.654 50.401,390.723 C41.98,388.566 33.673,388.547 24.476,391.78" fill="#A81E00"/>
    <path d="M73.396,445.707 C78.918,433.667 78.711,421.642 73.296,409.632 C73.717,407.019 76.006,406.921 77.827,406.536 C100.019,401.856 122.361,399.391 145.056,402.072 C148.085,402.43 150.736,403.819 153.621,404.522 C154.355,404.855 155.133,405.115 155.814,405.534 C164.078,410.605 164.085,410.67 158.225,418.497 C151.112,425.36 142.116,428.961 133.248,432.695 C115.524,440.157 97.029,444.773 77.943,446.993 C76.421,447.17 74.247,448.415 73.396,445.707" fill="#9B775C"/>
    <path d="M12.324,427.904 C12.281,413.135 23.973,401.275 38.729,401.119 C53.071,400.968 65.449,413.291 65.48,427.753 C65.512,442.244 53.321,454.537 38.884,454.574 C24.257,454.612 12.366,442.671 12.324,427.904" fill="#F8E4D4"/>
    <path d="M446.356,401.127 C460.71,400.927 473.121,413.154 473.262,427.633 C473.401,441.991 461.134,454.442 446.717,454.577 C432.273,454.711 420.031,442.564 419.949,428.016 C419.866,413.342 431.661,401.332 446.356,401.127" fill="#F8E4D4"/>
    <path d="M73.396,445.707 C80.7,446.406 87.668,444.304 94.687,442.943 C117.295,438.562 138.547,430.547 158.225,418.497 C143.626,440.51 122.508,452.628 97.33,458.53 C86.873,460.982 76.238,461.033 65.584,460.546 C64.326,460.489 62.867,460.812 61.793,458.865 C66.928,455.692 70.149,450.689 73.396,445.707" fill="#974B04"/>
    <path d="M153.621,404.522 C141.475,402.98 129.272,401.75 117.045,402.674 C102.295,403.789 87.482,404.824 73.297,409.633 C70.335,405.045 66.893,400.845 62.209,396.899 C88.072,387.23 113.141,386.626 138.253,396.48 C143.655,398.599 149.059,400.772 153.621,404.522" fill="#974B04"/>
    <path d="M385.587,246.946 C384.534,233.622 383.486,220.461 382.457,207.298 C382.095,202.667 381.895,198.019 381.393,193.403 C381.098,190.69 382.292,189.837 384.714,189.783 C391.007,189.643 395.439,192.649 398.569,197.884 C407.847,213.405 399.561,239.339 385.587,246.946" fill="#F8E4D4"/>
    <path d="M98.932,246.977 C89.973,240.323 85.383,231.267 83.49,220.682 C81.919,211.899 82.713,203.419 88.114,195.902 C91.144,191.685 95.327,189.622 100.547,189.805 C102.549,189.875 104.129,190.314 103.912,192.968 C102.479,210.534 101.116,228.106 99.71,245.674 C99.687,245.953 99.4,246.21 98.932,246.977" fill="#F8E4D4"/>
    <path d="M157.19,331.635 C139.988,331.606 122.786,331.577 105.585,331.549 C106.007,324.937 106.51,318.328 106.811,311.71 C106.931,309.08 107.836,308.744 110.145,309.645 C125.413,315.604 141.18,319.925 157.166,323.414 C159.929,324.017 159.927,324.983 159.014,327.018 C158.337,328.526 157.793,330.094 157.19,331.635" fill="#FEFEFE"/>
    <path d="M379.5,331.374 C362.866,331.458 346.233,331.542 329.6,331.627 C328.638,329.171 327.676,326.716 326.631,324.049 C343.307,320.542 359.348,316.006 375.015,310.229 C377.676,309.247 378.438,309.543 378.521,312.481 C378.699,318.782 379.903,325.036 379.5,331.374" fill="#FEFEFE"/>
    <path d="M336.003,523.675 C341.149,523.676 346.299,523.788 351.441,523.631 C354.276,523.544 355.821,524.175 355.591,527.444 C355.335,531.071 356.788,535.633 355.077,538.129 C353.153,540.937 348.417,538.566 344.932,538.573 C336.459,538.589 328.042,539.201 319.649,540.17 C317.525,540.415 316.751,540.158 316.5,537.847 C314.957,523.669 314.902,523.675 329.03,523.675 C331.355,523.675 333.679,523.675 336.003,523.675" fill="#A81E00"/>
    <path d="M168.603,531.912 C168.476,539.908 168.463,540.099 160.419,539.532 C150.825,538.856 141.246,538.154 131.643,539.128 C130.097,539.284 129.466,538.836 129.453,537.359 C129.449,536.862 129.48,536.363 129.464,535.866 C129.077,523.675 129.076,523.675 141.152,523.675 C148.286,523.675 155.444,524.034 162.546,523.555 C167.745,523.205 169.584,524.922 168.62,529.925 C168.496,530.565 168.603,531.249 168.603,531.912" fill="#A81E00"/>
    <path d="M226.643,332.287 C206.745,335.589 186.848,338.891 166.22,342.314 C168.174,337.02 169.898,332.431 171.554,327.818 C172.123,326.234 173.049,326.059 174.631,326.319 C191.842,329.142 209.18,330.824 226.643,332.287" fill="#FDFDFD"/>
    <path d="M320.444,342.306 C299.888,338.896 279.983,335.595 260.079,332.293 C277.55,330.779 294.907,329.166 312.116,326.262 C313.827,325.974 314.617,326.415 315.14,327.831 C316.843,332.441 318.523,337.059 320.444,342.306" fill="#FDFDFD"/>
    <path d="M335.397,505.579 C341.049,505.579 346.705,505.705 352.353,505.539 C356.973,505.404 354.933,508.757 355.225,510.765 C355.528,512.846 355.889,514.899 352.302,514.826 C341.168,514.599 330.026,514.701 318.887,514.761 C313.929,514.788 316.516,511.094 316.015,509.019 C315.487,506.835 315.953,505.363 318.942,505.505 C324.416,505.764 329.911,505.578 335.397,505.579" fill="#F8E4D4"/>
    <path d="M149.484,505.58 C154.98,505.579 160.482,505.737 165.969,505.515 C168.826,505.399 170.038,506.329 169.437,509.103 C168.97,511.264 171.083,514.819 166.277,514.774 C155.12,514.67 143.961,514.699 132.803,514.775 C130.66,514.79 129.237,513.913 130.142,511.981 C131.134,509.866 127.751,505.652 132.997,505.594 C138.492,505.533 143.988,505.58 149.484,505.58" fill="#F8E4D4"/>
    <path d="M89.676,376.775 C90.103,379.765 89.128,381.496 85.79,381.505 C83.981,381.51 82.172,381.914 80.013,382.181 C82.061,378.353 85.236,375.939 88.406,373.52 C90.96,373.774 89.692,375.518 89.676,376.775" fill="#F5F5F5"/>
    <path d="M347.13,584.6 C344.355,584.526 342.584,584.75 342.488,582.253 C342.382,579.485 344.246,579.584 346.133,579.565 C347.942,579.547 349.45,579.764 349.41,582.136 C349.368,584.549 347.767,584.638 347.13,584.6" fill="#120C0B"/>
    <path d="M79.43,584.548 C77.723,584.639 76.53,584.173 76.506,582.145 C76.483,580.195 77.495,579.581 79.281,579.569 C81.169,579.557 82.525,579.923 82.447,582.251 C82.377,584.353 81.053,584.601 79.43,584.548" fill="#140D0D"/>
    <path d="M106.428,582.044 C106.526,584.036 105.37,584.553 103.621,584.574 C101.697,584.596 100.407,584.138 100.513,581.839 C100.612,579.722 101.995,579.603 103.586,579.576 C105.313,579.547 106.525,580.024 106.428,582.044" fill="#140D0D"/>
    <path d="M142.415,582.026 C142.527,584.006 141.398,584.555 139.636,584.574 C137.73,584.593 136.409,584.178 136.503,581.864 C136.589,579.754 137.945,579.595 139.55,579.577 C141.258,579.557 142.505,579.99 142.415,582.026" fill="#140D0D"/>
    <path d="M324.391,582.207 C324.434,584.338 323.033,584.549 321.407,584.564 C319.721,584.581 318.511,584.192 318.475,582.153 C318.432,579.778 319.912,579.562 321.737,579.573 C323.563,579.584 324.549,580.307 324.391,582.207" fill="#160D0D"/>
    <path d="M384.373,581.766 C384.511,583.964 383.417,584.557 381.639,584.573 C379.75,584.59 378.397,584.215 378.473,581.89 C378.542,579.784 379.873,579.576 381.494,579.58 C383.155,579.584 384.518,579.884 384.373,581.766" fill="#140D0D"/>
    <path d="M409.372,581.923 C409.524,583.828 408.538,584.554 406.716,584.569 C404.885,584.584 403.417,584.35 403.461,581.983 C403.498,579.944 404.712,579.561 406.395,579.577 C408.019,579.592 409.424,579.797 409.372,581.923" fill="#140C0B"/>
    <path d="M166.418,582.002 C166.541,583.962 165.448,584.556 163.67,584.573 C161.782,584.591 160.428,584.215 160.504,581.89 C160.572,579.787 161.903,579.586 163.524,579.576 C165.209,579.566 166.497,579.944 166.418,582.002" fill="#140C0B"/>
    <path d="M89.676,376.775 C89.108,375.746 89.957,374.165 88.406,373.52 C88.734,372.876 89.528,372.261 89.907,372.763 C90.865,374.034 90.592,375.481 89.676,376.775" fill="#A7A7A7"/>
    <path d="M244.932,250.494 C229.771,250.015 215.94,247.722 203.331,240.54 C195.958,236.342 189.883,230.848 186.323,222.904 C184.928,219.792 184.353,216.601 184.459,213.228 C184.566,209.852 186.325,207.913 189.615,207.679 C192.743,207.456 194.996,209.302 195.218,212.221 C196.01,222.632 202.904,228.324 211.242,232.122 C232.968,242.018 255.038,242.106 276.778,232.092 C285.134,228.243 292.027,222.649 292.822,212.246 C293.048,209.299 295.27,207.465 298.396,207.673 C301.67,207.89 303.484,209.792 303.609,213.174 C303.886,220.66 300.657,226.742 295.689,231.925 C284.888,243.191 270.894,247.513 255.972,249.566 C252.026,250.109 248.024,250.244 244.932,250.494" fill="#000000"/>
    <path d="M247.206,222.513 C240.198,222.327 233.224,222.009 226.554,219.624 C216.935,216.186 214.128,211.406 215.752,201.302 C216.623,195.886 217.645,190.487 217.449,184.969 C217.307,180.956 217.528,176.938 211.664,176.366 C208.89,176.096 207.958,173.255 208.33,170.494 C208.753,167.349 210.886,166.004 213.846,165.8 C219.859,165.385 225.599,169.975 227.453,176.787 C229.611,184.72 228.228,192.657 227.122,200.545 C226.064,208.09 226.096,208.554 233.647,210.137 C243.884,212.283 254.144,211.955 264.284,209.391 C266.638,208.796 268.777,207.928 270.071,205.252 C271.238,202.838 273.876,202.132 276.561,203.279 C279.221,204.416 280.188,206.598 279.837,209.347 C279.179,214.499 275.477,216.94 271.154,218.661 C263.462,221.724 255.362,222.351 247.206,222.513" fill="#000000"/>
    <path d="M156.528,231.611 C146.784,231.639 138.582,223.618 138.559,214.035 C138.535,204.491 147.379,195.619 156.691,195.846 C166.088,196.075 174.327,204.502 174.381,213.939 C174.436,223.51 166.28,231.583 156.528,231.611" fill="#F29281"/>
    <path d="M328.492,231.611 C318.747,231.632 310.549,223.599 310.537,214.017 C310.526,204.664 318.832,196.114 328.191,195.846 C337.521,195.579 346.315,204.345 346.36,213.955 C346.404,223.527 338.244,231.59 328.492,231.611" fill="#F29281"/>
    <path d="M243.623,313.604 C227.815,313.604 214.128,303.967 209.251,289.594 C207.998,285.902 208.279,282.832 212.133,281.339 C216.059,279.818 218.203,282.006 219.615,285.65 C223.819,296.496 232.584,302.601 243.568,302.604 C254.603,302.607 263.368,296.477 267.518,285.698 C268.89,282.134 270.957,279.843 274.999,281.306 C279.076,282.782 279.096,286.043 277.987,289.553 C273.521,303.697 259.361,313.604 243.623,313.604" fill="#000000"/>
    <path d="M306.469,198.783 C299.258,198.629 294.126,193.185 294.289,185.862 C294.446,178.803 300.093,173.469 307.247,173.622 C314.247,173.773 319.6,179.484 319.449,186.642 C319.3,193.731 313.732,198.939 306.469,198.783" fill="#000000"/>
    <path d="M180.755,198.783 C173.715,198.622 168.238,192.836 168.482,185.817 C168.724,178.826 174.554,173.419 181.63,173.622 C188.696,173.825 194.05,179.572 193.794,186.68 C193.534,193.926 188.119,198.952 180.755,198.783" fill="#000000"/>
  </g>
</svg>
